<?xml version="1.0" encoding="utf-8"?>
<!-- Generator: Adobe Illustrator 17.0.0, SVG Export Plug-In . SVG Version: 6.00 Build 0)  -->
<svg xmlns="http://www.w3.org/2000/svg" xmlns:xlink="http://www.w3.org/1999/xlink" width="417" height="508" viewBox="0 0 417 508">
  <defs>
    <clipPath id="clip-path">
      <rect id="Rectangle_117" data-name="Rectangle 117" width="417" height="508" transform="translate(949 587)" fill="#fff" stroke="#707070" stroke-width="1"/>
    </clipPath>
  </defs>
  <g id="M" transform="translate(-949 -587)" clip-path="url(#clip-path)">
    <path id="Path_53" data-name="Path 53" d="M409.794,35.932c49.227,0,88.954,207.8,88.954,464.082H570C570,223.816,498.317,0,409.794,0,359.272,0,314.363,67.1,285,172.3,255.636,67.1,210.727,0,160.2,0,71.682,0,0,223.816,0,500.013H71.25c0-256.284,39.727-464.082,88.954-464.082s88.954,191.78,88.954,428.583h71.25c0-236.8,40.159-428.583,89.386-428.583" transform="translate(955 587.055)" fill="#efc23b"/>
  </g>
</svg>
